<svg xmlns="http://www.w3.org/2000/svg" width="104" height="24" fill="none"><path fill="#181515" d="M19.399 16.267a7.411 7.411 0 1 1-14.822 0 7.411 7.411 0 1 1 14.822 0zm-10.916 0a3.506 3.506 0 1 0 7.011 0 3.506 3.506 0 0 0-7.011 0z"/><path fill="#181515" d="M0 6.889a14.762 14.762 0 0 1 23.884-.028l-3.356 2.444a10.61 10.61 0 0 0-17.166.02L0 6.89zm99.46 16.736V6.648h4.088v16.977H99.46zm0-18.88V.374h4.088v4.37H99.46zM87.756 24c-1.186 0-2.216-.198-3.09-.593-.873-.396-1.549-.957-2.027-1.686-.479-.749-.718-1.612-.718-2.59 0-.936.208-1.768.624-2.497.416-.748 1.06-1.373 1.935-1.872.873-.5 1.976-.853 3.307-1.061l5.554-.905v3.12l-4.774.812c-.811.146-1.414.406-1.81.78-.395.375-.592.864-.592 1.467 0 .583.218 1.05.655 1.404.458.333 1.02.5 1.685.5.853 0 1.602-.177 2.247-.53a3.862 3.862 0 0 0 1.529-1.53 4.152 4.152 0 0 0 .561-2.122v-4.37c0-.727-.291-1.33-.873-1.81-.562-.499-1.311-.748-2.247-.748-.874 0-1.654.239-2.34.717a4.009 4.009 0 0 0-1.467 1.842l-3.339-1.623a5.837 5.837 0 0 1 1.56-2.31 7.976 7.976 0 0 1 2.56-1.56c.977-.374 2.038-.562 3.182-.562 1.394 0 2.621.26 3.682.78 1.06.5 1.883 1.207 2.465 2.123.603.894.905 1.945.905 3.152v11.297h-3.87v-2.902l.874-.063a7.11 7.11 0 0 1-1.56 1.842 7.042 7.042 0 0 1-2.06 1.123c-.769.25-1.622.375-2.558.375zm-12.984-.373v-4.37h4.12v4.37h-4.12zm-7.202-.002V6.648h3.837v3.776l-.312-.561c.396-1.27 1.01-2.154 1.841-2.653.853-.5 1.873-.75 3.058-.75h.999v3.621h-1.467c-1.165 0-2.1.364-2.808 1.092-.707.708-1.061 1.706-1.061 2.996v9.456h-4.088zm-11.233.374c-1.228 0-2.361-.24-3.401-.718a6.029 6.029 0 0 1-2.434-2.122l.405-.811v3.277H47.07V0h4.088v10.018l-.624-.843a5.855 5.855 0 0 1 2.371-2.122c.999-.52 2.153-.78 3.464-.78 1.602 0 3.048.395 4.337 1.186a8.635 8.635 0 0 1 3.058 3.183c.77 1.332 1.155 2.83 1.155 4.494 0 1.643-.375 3.142-1.123 4.494a8.567 8.567 0 0 1-3.058 3.214c-1.29.77-2.757 1.155-4.4 1.155zm-.468-3.745c.936 0 1.768-.218 2.496-.655a4.42 4.42 0 0 0 1.685-1.81c.416-.77.624-1.655.624-2.653 0-.999-.208-1.873-.624-2.622a4.42 4.42 0 0 0-1.685-1.81c-.728-.457-1.56-.686-2.496-.686a4.64 4.64 0 0 0-2.434.655c-.707.437-1.269 1.05-1.685 1.841-.395.77-.593 1.644-.593 2.622 0 .998.198 1.883.593 2.653.416.77.978 1.373 1.685 1.81a4.64 4.64 0 0 0 2.434.655zm-24.273 3.371V10.299h-2.995V6.647h2.995v-.561c0-1.29.26-2.383.78-3.277A5.318 5.318 0 0 1 34.623.718C35.58.239 36.713 0 38.024 0c.25 0 .52.02.811.062.313.021.572.052.78.094v3.527a3.025 3.025 0 0 0-.592-.063 3.788 3.788 0 0 0-.468-.031c-.916 0-1.623.208-2.122.624-.5.395-.75 1.02-.75 1.873v.561h5.867V10.3h-5.866v13.326h-4.088zm8.425 0V6.646h4.12v16.977h-4.12z"/></svg>